<?xml version="1.0" encoding="UTF-8"?>
<svg id="Layer_2" xmlns="http://www.w3.org/2000/svg" viewBox="0 0 135.83 108.23">
  <g id="Layer_1-2" data-name="Layer_1">
    <g>
      <path d="M2.02,31.68c-.3.02-.58-.18-.6-.57-.03-.39.22-.65.52-.67.6-.04,1.17-.04,3.79-.21l-1.34-20.54c-2.63.17-3.19.24-3.79.28-.3.02-.58-.21-.6-.6-.02-.35.22-.62.52-.64.71-.05,1.51.08,5.08-.15l.94-.06c1.42-.09,3.3-.29,4.57-.37,5.4-.35,8.22,1.85,8.42,4.93.16,2.51-2.53,4.61-4.63,5.35,3.3.35,6.72,2.55,6.92,5.67.25,3.75-2.37,6.41-7.81,6.77-2.1.14-4.32.14-6.01.25l-.94.06c-3.56.23-4.34.46-5.05.51ZM15.6,13.33c-.2-3.01-1.58-4.06-5.34-3.81-.41.03-1.95.13-1.95.13l.58,8.92,1.65-.11c3.34-.22,5.3-1.34,5.06-5.13ZM17.89,24.35c-.2-3.08-2.17-4.94-5.73-4.71l-3.19.21.65,9.92s1.73-.11,3.53-.23c3.75-.24,4.98-1.57,4.75-5.18Z"/>
      <path d="M29.86,18.34c.46,7.12,3.01,10.33,7.17,10.06,3.34-.22,5.22-2.05,6.13-5.34.05-.32.25-.76.63-.79.45-.03.73.24.75.56.02.25-.1.75-.16.97-1.52,4.44-4.7,5.89-7.93,6.1-5.55.36-10.45-3.73-10.94-11.27-.46-7.08,3.95-12.24,9.09-12.58,6.08-.4,9.44,3.8,9.37,9.06l-14.18.92c0,.71.02,1.49.07,2.31ZM39.86,13.89c.28-.98.32-1.51.28-2.12-.2-3.05-2.44-4.57-4.92-4.41-2.81.18-5.01,1.78-5.37,7.18l10.02-.65Z"/>
      <path d="M59.98,26.7c2.63-.17,3.19-.24,3.79-.28.3-.02.58.21.6.6.03.39-.22.62-.52.64-.71.05-1.51-.08-5.08.15l-1.39.09c-3.53.23-4.34.46-5.06.51-.3.02-.58-.18-.6-.57-.03-.39.22-.65.52-.67.68-.04,1.47-.06,3.79-.21l-1.32-20.33-4.31.28c-2.18.14-3.08,1.91-2.89,4.74.02.28-.15.54-.57.57-.41.03-.62-.21-.63-.49-.02-.35,0-2.84-.09-4.3l-.07-1.06c-.03-.39.22-.65.52-.67.34-.02,1.51.04,2.11,0l15.65-1.02c.6-.04,1.75-.26,2.09-.28.3-.02.58.21.6.6l.07,1.06c.09,1.45.44,3.92.47,4.27.02.28-.15.54-.57.57s-.62-.21-.64-.49c-.19-2.83-1.31-4.47-3.49-4.32l-4.31.28,1.32,20.33Z"/>
      <path d="M82.23,25.25c2.63-.17,3.19-.24,3.79-.28.3-.02.58.21.6.6.03.39-.22.62-.52.64-.71.05-1.51-.08-5.08.15l-1.39.09c-3.53.23-4.34.46-5.05.51-.3.02-.58-.18-.6-.56-.03-.39.22-.65.52-.67.68-.04,1.47-.06,3.79-.21l-1.32-20.33-4.31.28c-2.18.14-3.08,1.91-2.89,4.74.02.28-.15.54-.57.57-.41.03-.62-.21-.64-.49-.02-.35,0-2.84-.09-4.3l-.07-1.06c-.03-.39.22-.65.52-.67.34-.02,1.51.04,2.11,0l15.65-1.02c.6-.04,1.75-.26,2.09-.28.3-.02.58.21.61.6l.07,1.06c.09,1.45.44,3.92.47,4.27.02.28-.15.54-.57.57s-.62-.21-.63-.49c-.19-2.83-1.31-4.47-3.48-4.32l-4.32.28,1.32,20.33Z"/>
      <path d="M96.87,13.98c.46,7.12,3.01,10.33,7.17,10.06,3.34-.22,5.22-2.05,6.13-5.34.05-.32.25-.76.63-.79.45-.03.73.24.75.56.02.25-.1.75-.16.97-1.52,4.44-4.7,5.89-7.93,6.1-5.55.36-10.45-3.73-10.94-11.27-.46-7.08,3.95-12.24,9.09-12.58,6.08-.4,9.44,3.8,9.37,9.06l-14.18.92c0,.71.02,1.49.08,2.31ZM106.87,9.52c.28-.98.32-1.51.28-2.12-.2-3.05-2.44-4.57-4.92-4.41-2.81.18-5.01,1.78-5.37,7.18l10.02-.65Z"/>
      <path d="M127.31.01c2.51-.16,4.14,1.15,4.25,2.78.1,1.49-.8,2.72-2.27,2.81-1.39.09-2.54-.86-2.63-2.18-.05-.78.32-1.48.71-1.83-2.48-.41-5.88,2.91-5.43,9.74l.73,11.26c2.36-.15,3.15-.24,3.82-.28.3-.02.58.21.6.6.03.39-.22.62-.52.64-.71.05-1.59-.08-5.08.15l-1.39.09c-3.56.23-4.34.46-5.05.51-.3.02-.58-.18-.6-.57-.03-.39.22-.65.52-.67.6-.04,1.17-.04,3.79-.21l-1.34-20.54c-1.8.12-3.41.26-3.79.28-.3.02-.58-.21-.6-.6-.02-.35.22-.62.52-.64.26-.02,1.89.02,4.1-.13,1.39-.09,2.46-.41,3.02-.45.34-.02.58.25.61.71l.25,3.82c.87-2.9,3.09-5.14,5.76-5.32Z"/>
    </g>
    <g>
      <path d="M23.47,72.87c4.16-.27,5.05-.38,6-.45.48-.03.92.33.96.95.04.62-.35.98-.83,1.01-1.13.07-2.39-.13-8.04.24l-2.2.14c-5.58.36-6.87.73-8,.8-.47.03-.91-.28-.95-.9-.04-.62.35-1.04.82-1.07,1.07-.07,2.32-.09,6-.33l-2.1-32.18-6.83.44c-3.45.22-4.88,3.02-4.58,7.51.03.45-.24.86-.9.9-.65.04-.98-.33-1.01-.78-.04-.56,0-4.5-.15-6.8l-.11-1.68c-.04-.62.35-1.04.83-1.07.53-.03,2.39.07,3.34.01l24.78-1.61c.95-.06,2.78-.41,3.31-.44.47-.03.92.34.96.95l.11,1.68c.15,2.3.7,6.2.74,6.77.03.45-.24.86-.9.9s-.98-.33-1-.78c-.29-4.48-2.07-7.07-5.52-6.85l-6.83.45,2.1,32.18Z"/>
      <path d="M53.35,70.93c3.74-.24,3.5-.28,4.57-.35.48-.03.92.33.96.95.04.62-.35.98-.83,1.01-1.13.07-2.51-.12-8.04.24l-.71.05c-5.64.37-6.87.73-8,.8-.47.03-.91-.28-.95-.9-.04-.62.35-1.04.82-1.07.95-.06,1.85-.06,6-.33l-2.12-32.52c-4.16.27-5.05.39-6,.45-.47.03-.92-.34-.96-.95-.04-.56.35-.98.83-1.01,1.13-.07,2.39.13,8.04-.24l.71-.05c5.53-.36,6.87-.73,8-.8.48-.03.92.33.95.89.04.62-.35,1.04-.83,1.07-1.07.07-.84,0-4.58.24l.94,14.47,15.33-1-.94-14.47c-4.16.27-3.56.29-4.57.36-.42.03-.92-.34-.96-.95-.04-.56.41-.98.83-1.01,1.13-.07,2.39.13,8.04-.24l.77-.05c5.53-.36,6.88-.73,8-.8.42-.03.92.33.95.89.04.62-.41,1.04-.83,1.07-1.13.07-2.32.09-6.06.34l2.12,32.52c3.74-.24,4.93-.38,6.06-.45.42-.03.92.33.96.95.04.62-.41.99-.83,1.01-1.13.07-2.51-.12-8.04.24l-.77.05c-5.64.37-6.87.73-8,.8-.42.03-.91-.28-.95-.9-.04-.62.41-1.04.83-1.07,1.01-.07.42.03,4.58-.24l-1.04-15.98-15.33,1,1.04,15.98Z"/>
      <path d="M105.38,67.48c.47-.03.92.33.96.95.04.62-.35.98-.83,1.01-1.13.07-2.51-.12-8.04.24l-2.2.14c-5.64.37-6.87.73-8,.8-.48.03-.91-.28-.95-.9-.04-.62.35-1.04.83-1.07.95-.06,1.85-.06,6-.34l-2.12-32.52c-4.16.27-5.05.39-6,.45-.48.03-.92-.34-.96-.95-.04-.56.35-.98.83-1.01,1.13-.07,2.39.13,8.04-.24l2.2-.14c5.53-.36,6.87-.73,8-.8.47-.03.92.33.95.89.04.62-.35,1.04-.83,1.07-1.07.07-2.32.09-6.06.34l2.12,32.52c3.74-.24,4.99-.38,6.06-.45Z"/>
      <path d="M123.92,69.03c-3.86.25-7.18-1.28-8.82-2.52-.52.26-1.07.91-1,2.04.02.34,0,.9-.77.95-.95.06-.99-.5-1.01-.78l-.68-10.43c-.03-.5.18-.91.83-.96.83-.05.92.39.95.84.35,5.44,4.82,8.92,10.58,8.54,3.86-.25,7.68-3.03,7.39-7.41-.27-4.09-3.81-5.38-7.26-6.06l-2.36-.46c-7.56-1.59-10.63-4.71-11.01-10.49-.42-6.45,5.27-10.76,10.38-11.09,3.68-.24,6.37.71,7.83,2.02.58-.21.97-.68.91-1.64-.02-.34,0-.9.77-.95.95-.06.99.5,1.01.78l.59,9.08c.03.45-.12.91-.83.95-.77.05-.92-.45-.95-.84-.21-3.25-2.47-7.72-8.95-7.3-4.04.26-7.02,3.1-6.75,7.25.25,3.81,3.35,4.79,6.32,5.39l2.96.59c6.59,1.37,11.3,4.05,11.74,10.72.44,6.73-5.11,11.31-11.88,11.75Z"/>
    </g>
    <g>
      <path d="M27.77,83.99c.26-.02.54.21.57.57.03.39-.22.65-.48.67-.71.05-1.13.04-1.88.09l-2.34,7.41,4.17,9.01,5.34-16.88c-2.66.17-1.35.12-1.99.16-.3.02-.58-.21-.6-.6-.02-.35.22-.62.52-.64.71-.05,1.02.11,2.56.01h.19c2.63-.18,2.77-.37,3.52-.42.26-.02.54.21.56.57.03.39-.22.65-.48.67-.71.05-.27-.02-2.82.15l-7.05,22.47c-.13.26-.2.37-.65.4-.41.03-.53-.11-.62-.31l-4.61-10.05-3.31,10.56c-.13.26-.2.37-.65.4-.41.03-.54-.11-.62-.31l-9.87-21.37h-.15c-1.8.13-2.25.19-2.89.23-.26.02-.58-.21-.6-.6-.02-.35.26-.62.52-.64.75-.05,1.55.08,5.11-.16l15.98-1.04c1.57-.1,1.83-.3,2.58-.34ZM16.4,85.94l-5.22.34,7.41,16.06,2.19-6.9-4.39-9.49ZM22.79,90.89l1.72-5.48-4.13.27,2.41,5.21Z"/>
      <path d="M54.67,82.2c.3-.02.58.21.6.6l.07,1.06c.09,1.45.44,3.92.47,4.27.02.28-.15.54-.53.57-.41.03-.65-.21-.67-.49-.18-2.83-1.35-4.46-3.48-4.32l-6.04.39.58,8.92,3.68-.24c1.24-.08,1.97-1.05,1.85-2.86-.02-.28.12-.54.45-.56.34-.02.5.22.52.5.02.32.03.99.18,3.37.15,2.37.24,3.04.26,3.36.02.25-.12.54-.45.56-.34.02-.51-.25-.52-.5-.12-1.81-.96-2.68-2.2-2.6l-3.68.24.65,9.92,6.98-.45c2.14-.14,3.08-1.91,2.89-4.74-.02-.28.19-.54.6-.57.38-.02.58.21.6.49.02.35,0,2.85.09,4.3l.07,1.1c.02.35-.22.62-.52.64-.34.02-1.51-.04-2.07,0l-11.22.66c-3.56.23-4.34.46-5.05.51-.26.02-.58-.18-.6-.57-.03-.39.26-.66.52-.68.64-.04,1.2-.04,3.83-.21l-1.34-20.54c-2.63.17-3.19.24-3.82.28-.26.02-.58-.21-.6-.6-.02-.35.26-.62.52-.64.71-.05,1.51.08,5.08-.15l10.28-.74c.56-.04,1.72-.25,2.05-.28Z"/>
      <path d="M76.54,80.78c.3-.02.58.21.6.6l.07,1.06c.09,1.45.44,3.92.47,4.27.02.28-.15.54-.53.57-.41.03-.65-.21-.67-.49-.18-2.83-1.35-4.46-3.48-4.33l-6.04.39.58,8.92,3.68-.24c1.24-.08,1.97-1.05,1.85-2.86-.02-.28.11-.54.45-.56.34-.02.5.22.52.5.02.32.03.99.18,3.37.15,2.37.24,3.04.26,3.36.02.25-.12.54-.45.56-.34.02-.51-.25-.52-.5-.12-1.81-.97-2.68-2.2-2.59l-3.68.24.65,9.92,6.98-.45c2.14-.14,3.08-1.91,2.89-4.74-.02-.28.19-.54.6-.57.38-.02.58.21.6.49.02.35,0,2.85.09,4.3l.07,1.1c.02.35-.22.62-.52.64-.34.02-1.51-.04-2.07,0l-11.22.66c-3.57.23-4.34.46-5.05.51-.26.02-.58-.18-.6-.57-.03-.39.26-.66.52-.68.64-.04,1.2-.04,3.83-.21l-1.34-20.54c-2.63.17-3.19.24-3.82.28-.26.02-.58-.21-.6-.6-.02-.35.26-.62.52-.64.71-.05,1.51.08,5.08-.15l10.27-.74c.56-.04,1.72-.25,2.05-.28Z"/>
      <path d="M94.28,101.46c.3-.02.58.21.6.6.03.39-.22.62-.52.64-.71.05-1.59-.07-5.08.15l-1.39.09c-3.56.23-4.34.46-5.05.51-.3.02-.58-.18-.6-.57-.03-.39.22-.66.52-.68.6-.04,1.17-.04,3.79-.21l-1.34-20.54c-2.63.17-3.19.24-3.79.28-.3.02-.58-.21-.6-.6-.02-.35.22-.62.52-.64.71-.05,1.51.08,5.08-.15l1.39-.09c3.49-.23,4.34-.46,5.06-.51.3-.02.58.21.6.57.03.39-.22.65-.52.67-.68.04-1.47.06-3.83.21l1.34,20.54c2.36-.15,3.15-.24,3.82-.28ZM89.97,91.39l8.45-10.79c-1.8.12-2.62.21-3.26.25-.26.02-.58-.21-.6-.6-.02-.35.26-.62.52-.64.71-.05.99.11,4.14-.09h.19c2.63-.18,2.77-.37,3.48-.42.26-.02.54.21.56.57.03.39-.22.65-.48.67-.71.05-1.35.05-2.7.14l-7.1,9.03,11.36,11.32c1.35-.09,1.65-.14,2.32-.19.3-.02.54.21.57.6.03.39-.19.62-.48.64-.71.05-1.02-.11-4.51.12l-.49.03c-3.56.23-4.04.44-4.75.49-.26.02-.58-.18-.6-.56-.03-.39.26-.66.52-.68.64-.04.6,0,2.4-.12l-9.51-9.48-.02-.28Z"/>
    </g>
  </g>
</svg>