<?xml version="1.0" encoding="UTF-8"?>
<svg id="Layer_2" xmlns="http://www.w3.org/2000/svg" viewBox="0 0 167.39 42.75">
  <defs>
    <style>
      .cls-1 {
        fill: #172f53;
      }

      .cls-2 {
        fill: #d6b371;
      }
    </style>
  </defs>
  <g id="Layer_1-2" data-name="Layer_1">
    <g>
      <path class="cls-1" d="M101.1,36.93l1.11,2.95h-2.24l1.12-2.95ZM100.62,35.86l-2.69,6.72h1.04l.71-1.87h2.83l.71,1.87h1.1l-2.69-6.72h-1.01Z"/>
      <path class="cls-1" d="M108.33,42.58v-6.72h2.3c.73,0,1.37.12,1.93.36.56.24,1,.61,1.32,1.1.32.5.48,1.14.48,1.92s-.16,1.38-.48,1.87c-.32.5-.76.87-1.33,1.11-.56.24-1.21.36-1.94.36h-2.29ZM109.32,41.71h1.28c.86,0,1.53-.21,2.01-.62.48-.41.72-1.03.72-1.84s-.23-1.45-.7-1.88c-.46-.43-1.15-.65-2.06-.65h-1.25v4.99Z"/>
      <polygon class="cls-1" points="120.44 42.58 117.78 35.86 118.88 35.86 120.97 41.38 123.07 35.86 124.11 35.86 121.45 42.58 120.44 42.58"/>
      <rect class="cls-1" x="128.11" y="35.86" width=".99" height="6.72"/>
      <path class="cls-1" d="M133.36,41.57l.7-.63c.13.14.28.28.45.42.17.14.37.26.6.35.23.09.49.14.79.14.45,0,.81-.1,1.06-.31.25-.2.38-.48.38-.81,0-.38-.14-.66-.43-.84-.28-.18-.7-.33-1.25-.44-.58-.12-1.06-.34-1.43-.66-.37-.32-.55-.74-.55-1.28,0-.33.09-.63.26-.91.17-.28.43-.5.77-.68.34-.17.77-.26,1.27-.26.45,0,.82.06,1.11.18.29.12.52.25.69.4s.28.27.35.36l-.66.6c-.05-.07-.15-.16-.28-.26-.13-.11-.3-.2-.5-.29-.2-.08-.45-.13-.75-.13s-.53.05-.71.15c-.19.1-.32.22-.41.36-.09.14-.13.29-.13.45,0,.33.14.58.42.74.28.16.68.3,1.21.42.34.07.67.19.98.35.31.16.56.38.76.66.2.28.29.65.29,1.1,0,.39-.11.73-.32,1.03-.21.3-.5.53-.87.7-.36.17-.78.26-1.24.26-.43,0-.81-.06-1.14-.18-.33-.12-.62-.27-.86-.46-.24-.18-.43-.36-.57-.54"/>
      <path class="cls-1" d="M145.89,42.75c-.5,0-.96-.09-1.38-.27-.43-.18-.8-.44-1.11-.76-.32-.33-.56-.7-.74-1.13-.18-.43-.27-.89-.27-1.38s.09-.95.26-1.38c.18-.43.42-.8.74-1.12.32-.32.69-.57,1.12-.76.43-.18.89-.27,1.38-.27s.96.09,1.38.27c.43.18.8.43,1.12.76.32.32.57.7.75,1.12.18.43.27.89.27,1.38s-.09.95-.27,1.38c-.18.43-.43.8-.75,1.13-.32.33-.69.58-1.12.76-.43.18-.89.27-1.38.27M145.89,41.84c.5,0,.94-.12,1.31-.36.37-.24.66-.56.87-.96.21-.4.31-.84.31-1.32s-.1-.93-.3-1.33c-.2-.4-.49-.72-.86-.96-.37-.24-.81-.36-1.32-.36s-.94.12-1.31.36c-.37.24-.66.56-.86.96-.2.4-.3.84-.3,1.33s.1.92.3,1.32c.2.4.49.72.86.96.37.24.81.36,1.31.36"/>
      <path class="cls-1" d="M153.79,42.58v-6.72h2.2c.58,0,1.05.1,1.4.29.35.2.6.44.76.75.16.3.23.61.23.94,0,.43-.1.81-.31,1.14-.21.33-.53.57-.96.74l1.61,2.87h-1.11l-1.48-2.75h-1.38v2.75h-.96ZM154.75,39.01h1.32c.43,0,.75-.1.97-.31.22-.21.33-.49.33-.84,0-.37-.12-.66-.35-.86-.23-.21-.56-.31-.97-.31h-1.3v2.32Z"/>
      <path class="cls-1" d="M162.4,41.57l.7-.63c.13.14.28.28.45.42.17.14.37.26.6.35.23.09.49.14.79.14.45,0,.81-.1,1.06-.31.25-.2.38-.48.38-.81,0-.38-.14-.66-.43-.84-.28-.18-.7-.33-1.25-.44-.58-.12-1.06-.34-1.43-.66-.37-.32-.55-.74-.55-1.28,0-.33.09-.63.26-.91.17-.28.43-.5.77-.68.34-.17.77-.26,1.27-.26.45,0,.82.06,1.11.18.29.12.52.25.69.4s.28.27.35.36l-.66.6c-.05-.07-.15-.16-.28-.26-.13-.11-.3-.2-.5-.29-.2-.08-.45-.13-.75-.13s-.53.05-.71.15c-.19.1-.32.22-.41.36-.09.14-.13.29-.13.45,0,.33.14.58.42.74.28.16.68.3,1.21.42.34.07.67.19.98.35.31.16.56.38.76.66.2.28.29.65.29,1.1,0,.39-.11.73-.32,1.03-.21.3-.5.53-.87.7-.36.17-.78.26-1.24.26-.43,0-.81-.06-1.14-.18-.33-.12-.62-.27-.86-.46-.24-.18-.43-.36-.57-.54"/>
      <polygon class="cls-1" points="40.19 18.66 40.19 30.23 33.85 30.23 33.85 .94 52.95 .94 52.95 6.92 40.19 6.92 40.19 12.68 51.85 12.68 51.85 18.66 40.19 18.66"/>
      <path class="cls-1" d="M66.1,25.13h-.09c-.92,3.56-3.21,5.54-6.73,5.54s-6.33-1.98-6.33-6.07c0-3.78,2.24-6.38,7.74-6.38h5.41v-.88c0-2.24-.97-3.47-3.26-3.47-1.98,0-3.25.88-3.65,3.3l-5.63-.79c.53-4.35,3.08-7.48,9.55-7.48s8.97,3.08,8.97,8.4v12.93h-5.98v-5.1ZM66.1,22.23v-.62h-4.49c-1.76,0-2.82.79-2.82,1.94,0,1.28.79,2.29,3.08,2.29,2.55,0,4.22-1.5,4.22-3.61"/>
      <rect class="cls-1" x="74.59" y="9.38" width="6.03" height="20.85"/>
      <path class="cls-1" d="M83.12,30.23V9.38h6.03v7.43h.09c1.01-6.33,2.73-7.43,5.63-7.43h1.01v6.86h-2.29c-3.39,0-4.44.92-4.44,4.05v9.94h-6.03Z"/>
      <rect class="cls-1" x="97.1" y=".94" width="6.03" height="29.3"/>
      <path class="cls-1" d="M104.71,20.25c0-7.21,4-11.44,10.78-11.44,6.42,0,9.55,4.09,9.55,9.76,0,.92,0,1.63-.09,2.77h-14.25c.4,2.99,1.98,4.31,4.79,4.31s3.7-1.36,4.18-2.99l5.19,1.45c-1.01,3.78-3.74,6.69-9.46,6.69-6.29,0-10.69-3.61-10.69-10.56M110.74,17.96h8.8c-.18-2.77-1.54-4.18-4.22-4.18s-4.18,1.23-4.57,4.18"/>
      <path class="cls-1" d="M139.16,25.13h-.09c-.92,3.56-3.21,5.54-6.73,5.54s-6.33-1.98-6.33-6.07c0-3.78,2.24-6.38,7.74-6.38h5.41v-.88c0-2.24-.97-3.47-3.26-3.47-1.98,0-3.26.88-3.65,3.3l-5.63-.79c.53-4.35,3.08-7.48,9.55-7.48s8.97,3.08,8.97,8.4v12.93h-5.98v-5.1ZM139.16,22.23v-.62h-4.49c-1.76,0-2.82.79-2.82,1.94,0,1.28.79,2.29,3.08,2.29,2.55,0,4.22-1.5,4.22-3.61"/>
      <path class="cls-1" d="M161.41,24.6h-.13c-1.01,4.4-3.39,6.25-6.95,6.25-5.06,0-7.65-4.14-7.65-10.91s2.73-11.17,7.74-11.13c3.61-.04,5.89,1.8,6.91,6.25h.09V.94h5.98v29.3h-5.98v-5.63ZM161.41,20.07v-.4c0-3.39-1.67-5.5-4.4-5.5-3.04,0-4.4,2.11-4.4,5.76,0,3.43,1.32,5.5,4.4,5.5,2.73,0,4.4-1.94,4.4-5.37"/>
      <path class="cls-2" d="M77.6,6.25h0c-1.72,0-3.12-1.4-3.12-3.12s1.4-3.12,3.12-3.12,3.12,1.4,3.12,3.12-1.4,3.12-3.12,3.12"/>
      <path class="cls-2" d="M9.72,25.58c3.1-18.01.58-23.86.56-23.92C4.32,3.59,0,9.19,0,15.8c0,8.21,6.66,14.87,14.87,14.87,3.42,0,6.57-1.16,9.09-3.1-.55-.23-6.84-2.76-14.23-1.99Z"/>
      <path class="cls-2" d="M29.73,15.8C29.73,7.59,23.08.94,14.87.94c-1.6,0-3.14.26-4.58.72l13.69,25.89c3.5-2.72,5.76-6.97,5.76-11.75Z"/>
    </g>
  </g>
</svg>